<?xml version="1.0" encoding="utf-8"?>
<!-- Generator: Adobe Illustrator 22.0.1, SVG Export Plug-In . SVG Version: 6.00 Build 0)  -->
<svg version="1.1" id="Capa_1" xmlns="http://www.w3.org/2000/svg" xmlns:xlink="http://www.w3.org/1999/xlink" x="0px" y="0px"
	 viewBox="0 0 578 170" style="enable-background:new 0 0 578 170;" xml:space="preserve">
<style type="text/css">
	.st0{fill:#62798A;}
	.st1{fill:#384A57;}
	.st2{fill:url(#SVGID_1_);}
	.st3{fill:#D99449;}
	.st4{fill:url(#SVGID_2_);}
</style>
<g>
	<g>
		<g>
			<path class="st0" d="M88.2,72.9L73,88.2c-5.1,5.1-13.4,5.1-18.6,0c-2-2-3.2-4.5-3.7-7.1c-0.7-4.1,0.5-8.4,3.7-11.5l15.2-15.2
				c4.6-4.6,11.6-5.1,16.8-1.5c0.6,0.4,1.2,0.9,1.8,1.5c2.6,2.6,3.8,5.9,3.8,9.3C92.1,67,90.8,70.4,88.2,72.9z"/>
			<path class="st1" d="M50.8,81.1c-0.7-4.1,0.5-8.4,3.7-11.5l15.2-15.2c4.6-4.6,11.6-5.1,16.8-1.5C77.6,56.5,60.3,70.5,50.8,81.1z"
				/>
			
				<linearGradient id="SVGID_1_" gradientUnits="userSpaceOnUse" x1="-51.0598" y1="664.4702" x2="-51.0598" y2="664.983" gradientTransform="matrix(0.7071 0.7071 -0.7071 0.7071 550.3738 -341.3935)">
				<stop  offset="0" style="stop-color:#89CEF9"/>
				<stop  offset="2.709514e-02" style="stop-color:#86CCF7"/>
				<stop  offset="0.6865" style="stop-color:#49A7CD"/>
				<stop  offset="1" style="stop-color:#3199BC"/>
			</linearGradient>
			<path class="st2" d="M44,92.2l0.4,0.8C44.2,92.8,44,92.5,44,92.2z"/>
			<path class="st3" d="M107.9,123.1c-2.6,2.6-5.9,3.8-9.3,3.9c-3.4,0-6.7-1.3-9.3-3.9L54.4,88.2c-0.3-0.3-0.5-0.6-0.8-0.8
				c-4.3-5.2-4.1-12.9,0.8-17.7c5.1-5.1,13.4-5.1,18.6,0l34.9,34.9c4.3,4.3,5,10.8,2.1,15.8C109.5,121.3,108.8,122.3,107.9,123.1z"
				/>
			<path class="st0" d="M108,53.1c-2.6,2.6-5.9,3.8-9.3,3.8c-1.4,0-2.9-0.2-4.2-0.7c-1.8-0.6-3.6-1.7-5-3.1
				c-5.1-5.1-5.1-13.4,0-18.5c2.6-2.6,5.9-3.8,9.3-3.8c0.2,0,0.3,0,0.5,0c3.2,0.1,6.3,1.4,8.8,3.8c2.6,2.6,3.8,5.9,3.8,9.3
				C111.8,47.2,110.6,50.5,108,53.1z"/>
			<path class="st1" d="M94.5,56.2c-1.8-0.6-3.6-1.7-5-3.1c-5.1-5.1-5.1-13.4,0-18.5c2.6-2.6,5.9-3.8,9.3-3.8c0.2,0,0.3,0,0.5,0
				C94.7,37.5,93.6,46.3,94.5,56.2z"/>
		</g>
		<g>
			<path class="st3" d="M134.2,109.8l15.2-15.2c5.1-5.1,13.4-5.1,18.6,0c2,2,3.2,4.5,3.7,7.1c0.7,4.1-0.5,8.4-3.7,11.5l-15.2,15.2
				c-4.6,4.6-11.6,5.1-16.8,1.5c-0.6-0.4-1.2-0.9-1.8-1.5c-2.6-2.6-3.8-5.9-3.8-9.3C130.4,115.7,131.7,112.4,134.2,109.8z"/>
			
				<linearGradient id="SVGID_2_" gradientUnits="userSpaceOnUse" x1="1163.536" y1="108.7207" x2="1163.536" y2="109.2335" gradientTransform="matrix(-0.7071 -0.7071 0.7071 -0.7071 923.9046 990.0048)">
				<stop  offset="0" style="stop-color:#89CEF9"/>
				<stop  offset="2.709514e-02" style="stop-color:#86CCF7"/>
				<stop  offset="0.6865" style="stop-color:#49A7CD"/>
				<stop  offset="1" style="stop-color:#3199BC"/>
			</linearGradient>
			<path class="st4" d="M178.5,90.6l-0.4-0.8C178.3,90,178.4,90.2,178.5,90.6z"/>
			<path class="st0" d="M114.5,59.6c2.6-2.6,5.9-3.8,9.3-3.9c3.4,0,6.7,1.3,9.3,3.9L168,94.6c0.3,0.3,0.5,0.6,0.8,0.8
				c4.3,5.2,4.1,12.9-0.8,17.7c-5.1,5.1-13.4,5.1-18.6,0l-34.9-34.9c-4.3-4.3-5-10.8-2.1-15.8C113,61.4,113.7,60.5,114.5,59.6z"/>
			<path class="st3" d="M114.5,129.7c2.6-2.6,5.9-3.8,9.3-3.8c1.4,0,2.9,0.2,4.2,0.7c1.8,0.6,3.6,1.7,5,3.1c5.1,5.1,5.1,13.4,0,18.5
				c-2.6,2.6-5.9,3.8-9.3,3.8c-0.2,0-0.3,0-0.5,0c-3.2-0.1-6.3-1.4-8.8-3.8c-2.6-2.6-3.8-5.9-3.8-9.3
				C110.6,135.6,111.9,132.2,114.5,129.7z"/>
			<path class="st1" d="M114.5,59.6c2.6-2.6,5.9-3.8,9.3-3.9c3.4,0,6.7,1.3,9.3,3.9L168,94.6c0.3,0.3,0.5,0.6,0.8,0.8
				C150.5,84,126,67,112.4,62.4C113,61.4,113.7,60.5,114.5,59.6z"/>
		</g>
	</g>
	<g>
		<path class="st3" d="M226.8,90c2,2.5,3,5.4,3,8.6c0,2.9-0.7,5.5-2.1,7.7c-1.4,2.2-3.5,3.9-6.2,5.2c-2.7,1.2-5.9,1.9-9.6,1.9h-23.5
			V58.9h22.4c3.7,0,6.9,0.6,9.5,1.8c2.7,1.2,4.7,2.9,6.1,5c1.4,2.1,2.1,4.5,2.1,7.2c0,3.2-0.8,5.8-2.5,7.9c-1.7,2.1-3.9,3.6-6.7,4.5
			C222.3,86,224.8,87.5,226.8,90z M199.3,81.3h10c2.6,0,4.6-0.6,6-1.8s2.1-2.8,2.1-5s-0.7-3.9-2.1-5.1c-1.4-1.2-3.4-1.8-6-1.8h-10
			V81.3z M216.5,102.5c1.5-1.2,2.2-3,2.2-5.3c0-2.3-0.8-4.2-2.3-5.5c-1.6-1.3-3.7-2-6.3-2h-10.8v14.7h11
			C212.9,104.4,215,103.8,216.5,102.5z"/>
		<path class="st3" d="M249.4,67.7v13.6h18.3V90h-18.3v14.4H270v8.9h-31.6V58.8H270v8.9H249.4z"/>
		<path class="st3" d="M314,62.2c4.3,2.2,7.7,5.4,10.1,9.5c2.4,4.1,3.5,8.9,3.5,14.4s-1.2,10.2-3.5,14.3c-2.4,4.1-5.7,7.2-10.1,9.5
			c-4.3,2.2-9.4,3.4-15.1,3.4h-19V58.9h19C304.7,58.9,309.7,60,314,62.2z M311.8,99.3c3.1-3.1,4.7-7.5,4.7-13.2
			c0-5.7-1.6-10.1-4.7-13.3c-3.1-3.2-7.5-4.8-13.2-4.8h-7.7V104h7.7C304.3,104,308.7,102.4,311.8,99.3z"/>
		<path class="st1" d="M344.3,111.9c-3-1.3-5.4-3.2-7.2-5.6c-1.8-2.4-2.7-5.3-2.7-8.7h11.7c0.2,2.2,0.9,4,2.4,5.3
			c1.4,1.3,3.4,1.9,5.9,1.9c2.5,0,4.5-0.6,6-1.8c1.5-1.2,2.2-2.8,2.2-4.8c0-1.6-0.5-2.9-1.5-4c-1-1-2.2-1.9-3.7-2.5
			c-1.5-0.6-3.5-1.3-6.1-2c-3.5-1-6.4-2.1-8.6-3.1c-2.2-1-4.1-2.5-5.7-4.6c-1.6-2.1-2.4-4.8-2.4-8.2c0-3.2,0.8-6,2.4-8.4
			c1.6-2.4,3.9-4.2,6.8-5.5c2.9-1.3,6.2-1.9,10-1.9c5.6,0,10.2,1.4,13.7,4.1s5.4,6.5,5.8,11.4h-12c-0.1-1.9-0.9-3.4-2.4-4.6
			c-1.5-1.2-3.4-1.8-5.9-1.8c-2.1,0-3.8,0.5-5.1,1.6c-1.3,1.1-1.9,2.7-1.9,4.8c0,1.5,0.5,2.7,1.4,3.6c1,1,2.2,1.7,3.6,2.3
			c1.4,0.6,3.4,1.3,6,2.1c3.5,1,6.4,2.1,8.7,3.1c2.2,1,4.2,2.6,5.8,4.7c1.6,2.1,2.4,4.8,2.4,8.2c0,2.9-0.8,5.6-2.3,8.1
			s-3.7,4.5-6.6,6c-2.9,1.5-6.4,2.2-10.4,2.2C350.8,113.8,347.4,113.2,344.3,111.9z"/>
		<path class="st1" d="M394.5,110.2c-4.3-2.4-7.6-5.7-10.1-9.9c-2.5-4.2-3.7-9-3.7-14.4c0-5.3,1.2-10.1,3.7-14.3
			c2.5-4.2,5.9-7.5,10.1-9.9c4.3-2.4,8.9-3.6,14-3.6c5.1,0,9.8,1.2,14.1,3.6c4.2,2.4,7.6,5.7,10.1,9.9c2.5,4.2,3.7,9,3.7,14.3
			c0,5.4-1.2,10.1-3.7,14.4c-2.5,4.2-5.8,7.5-10.1,9.9c-4.3,2.4-8.9,3.6-14,3.6C403.4,113.8,398.8,112.6,394.5,110.2z M417.2,101.9
			c2.5-1.5,4.4-3.6,5.8-6.4c1.4-2.8,2.1-5.9,2.1-9.6c0-3.6-0.7-6.8-2.1-9.5c-1.4-2.7-3.4-4.8-5.8-6.3c-2.5-1.5-5.4-2.2-8.7-2.2
			s-6.2,0.7-8.7,2.2c-2.5,1.5-4.5,3.5-5.9,6.3c-1.4,2.7-2.1,5.9-2.1,9.5c0,3.6,0.7,6.8,2.1,9.6c1.4,2.8,3.4,4.9,5.9,6.4
			c2.5,1.5,5.4,2.2,8.7,2.2S414.7,103.3,417.2,101.9z"/>
		<path class="st1" d="M478,58.9v8.8h-22.7v13.9h17.4v8.7h-17.4v23h-10.9V58.9H478z"/>
		<path class="st1" d="M522.8,58.9v8.8h-14.5v45.6h-10.9V67.7h-14.5v-8.8H522.8z"/>
	</g>
</g>
</svg>
