<?xml version="1.0" encoding="utf-8"?>
<!-- Generator: Adobe Illustrator 26.5.1, SVG Export Plug-In . SVG Version: 6.00 Build 0)  -->
<svg version="1.1" id="Capa_1" xmlns="http://www.w3.org/2000/svg" xmlns:xlink="http://www.w3.org/1999/xlink" x="0px" y="0px"
	 viewBox="0 0 100 100" style="enable-background:new 0 0 100 100;" xml:space="preserve">
<style type="text/css">
	.st0{opacity:0.2;fill:#272425;}
	.st1{fill:#B04C57;}
	.st2{fill:#FFFFFF;}
</style>
<g>
	<path class="st0" d="M211.4,11.4c0-0.1,0-0.1,0-0.2c0,0,0-0.1,0-0.1c0,0,0-0.1,0-0.1c0,0,0-0.1,0-0.1c0,0,0-0.1,0-0.1
		c0,0,0-0.1,0-0.1c0,0,0-0.1,0-0.1c0-0.1,0-0.1-0.1-0.2c0,0,0,0,0-0.1c0,0,0,0,0,0c0,0-0.1-0.1-0.1-0.1c0,0,0-0.1-0.1-0.1
		c0,0-0.1-0.1-0.1-0.1c0,0-0.1-0.1-0.1-0.1c0,0,0-0.1-0.1-0.1c0,0-0.1-0.1-0.1-0.1c0,0,0,0-0.1-0.1c0,0-0.1-0.1-0.1-0.1
		c0,0-0.1,0-0.1-0.1c0,0-0.1-0.1-0.1-0.1c0,0-0.1-0.1-0.1-0.1c0,0-0.1,0-0.1-0.1c-0.1,0-0.1-0.1-0.2-0.1c0,0,0,0-0.1,0
		c-0.1,0-0.1,0-0.2-0.1c0,0,0,0-0.1,0c-0.1,0-0.1,0-0.2,0c0,0-0.1,0-0.1,0c0,0-0.1,0-0.1,0c0,0-0.1,0-0.1,0c0,0-0.1,0-0.1,0
		c-0.1,0-0.1,0-0.2,0c0,0,0,0,0,0c0,0,0,0-0.1,0c-0.1,0-0.1,0-0.2,0c0,0-0.1,0-0.1,0c0,0-0.1,0-0.1,0c0,0-0.1,0-0.1,0
		c0,0-0.1,0-0.1,0c0,0-0.1,0-0.1,0c0,0-0.1,0-0.1,0c-0.1,0-0.1,0-0.2,0.1c0,0,0,0-0.1,0l-38,19.2c0,0,0,0,0,0c0,0-0.1,0.1-0.1,0.1
		c0,0-0.1,0-0.1,0.1c0,0-0.1,0.1-0.1,0.1c0,0-0.1,0.1-0.1,0.1c0,0,0,0-0.1,0.1c0,0-0.1,0.1-0.1,0.1c0,0,0,0-0.1,0.1
		c0,0-0.1,0.1-0.1,0.1c0,0,0,0-0.1,0.1c0,0-0.1,0.1-0.1,0.1c0,0,0,0.1-0.1,0.1c0,0,0,0.1-0.1,0.1c0,0-0.1,0.1-0.1,0.2c0,0,0,0,0,0.1
		c0,0.1,0,0.1-0.1,0.2c0,0,0,0,0,0.1c0,0.1,0,0.1,0,0.2c0,0,0,0.1,0,0.1c0,0,0,0.1,0,0.1c0,0,0,0.1,0,0.1c0,0,0,0.1,0,0.1
		c0,0.1,0,0.1,0,0.2c0,0,0,0,0,0v45.7c-1.6-1-3.6-1.6-5.6-1.6c-6,0-10.9,4.9-10.9,10.9c0,6,4.9,10.9,10.9,10.9s10.9-4.9,10.9-10.9
		V32.3l32.7-16.6v41.4c-1.6-1-3.6-1.6-5.6-1.6c-6,0-10.9,4.9-10.9,10.9c0,6,4.9,10.9,10.9,10.9c6,0,10.9-4.9,10.9-10.9L211.4,11.4
		C211.4,11.4,211.4,11.4,211.4,11.4z"/>
	<g>
		<g>
			<circle class="st1" cx="168.6" cy="80.9" r="8.3"/>
			<path class="st1" d="M168.6,91.9c-6,0-10.9-4.9-10.9-10.9c0-6,4.9-10.9,10.9-10.9c6,0,10.9,4.9,10.9,10.9
				C179.5,87,174.6,91.9,168.6,91.9z M168.6,75.3c-3.1,0-5.6,2.5-5.6,5.6c0,3.1,2.5,5.6,5.6,5.6c3.1,0,5.6-2.5,5.6-5.6
				C174.2,77.8,171.7,75.3,168.6,75.3z"/>
		</g>
		<g>
			<path class="st1" d="M176.9,83.6c-1.5,0-2.6-1.2-2.6-2.6v-55c0-1.5,1.2-2.6,2.6-2.6c1.5,0,2.6,1.2,2.6,2.6v55
				C179.5,82.4,178.3,83.6,176.9,83.6z"/>
		</g>
		<g>
			<path class="st1" d="M214.9,61.7c0,4.6-3.7,8.3-8.3,8.3c-4.6,0-8.3-3.7-8.3-8.3c0-4.6,3.7-8.3,8.3-8.3
				C211.1,53.4,214.9,57.1,214.9,61.7z"/>
			<path class="st1" d="M206.6,72.6c-6,0-10.9-4.9-10.9-10.9s4.9-10.9,10.9-10.9c6,0,10.9,4.9,10.9,10.9S212.6,72.6,206.6,72.6z
				 M206.6,56.1c-3.1,0-5.6,2.5-5.6,5.6c0,3.1,2.5,5.6,5.6,5.6c3.1,0,5.6-2.5,5.6-5.6C212.2,58.6,209.7,56.1,206.6,56.1z"/>
		</g>
		<g>
			<path class="st1" d="M214.9,64.3c-1.5,0-2.6-1.2-2.6-2.6v-55c0-1.5,1.2-2.6,2.6-2.6c1.5,0,2.6,1.2,2.6,2.6v55
				C217.5,63.2,216.3,64.3,214.9,64.3z"/>
		</g>
		<g>
			<path class="st1" d="M176.9,28.5c-1,0-1.9-0.5-2.4-1.5c-0.7-1.3-0.1-2.9,1.2-3.6l38-19.2c1.3-0.7,2.9-0.1,3.6,1.2
				c0.7,1.3,0.1,2.9-1.2,3.6l-38,19.2C177.7,28.4,177.3,28.5,176.9,28.5z"/>
		</g>
	</g>
</g>
<g>
	<path class="st0" d="M86.2,28.5H70.7L61,18.8c-0.4-0.4-0.9-0.6-1.5-0.6H33.2c-0.6,0-1.1,0.2-1.5,0.6L22,28.5H5.2
		c-2.3,0-4.2,2.1-4.2,4.6v45.4c0,2.5,1.9,4.6,4.2,4.6h23.1c4.8,3.7,10.8,5.9,17.4,5.9c6.5,0,12.5-2.2,17.4-5.9h23.1
		c2.3,0,4.2-2.1,4.2-4.6V33.1C90.4,30.6,88.5,28.5,86.2,28.5z"/>
	<g>
		<polygon class="st2" points="73.7,21.5 67.5,15.3 43,15.3 36.8,21.5 		"/>
		<path class="st2" d="M63.5,25.7C75,29.5,83.4,40.4,83.4,53.1c0,7.2-2.6,13.7-6.9,18.8H95c0-0.1,0.1-0.2,0.1-0.4V26.1
			c0-0.2-0.1-0.4-0.1-0.4H63.5z"/>
		<path class="st2" d="M45.7,25.7H14.2c0,0.1-0.1,0.2-0.1,0.4v45.4c0,0.2,0.1,0.4,0.1,0.4h18.6c-4.3-5.1-6.9-11.6-6.9-18.8
			C25.9,40.4,34.2,29.5,45.7,25.7z"/>
		<path class="st1" d="M95.1,21.5H79.6l-9.7-9.8c-0.4-0.4-0.9-0.6-1.5-0.6H42.1c-0.6,0-1.1,0.2-1.5,0.6l-9.7,9.8H14.1
			c-2.3,0-4.2,2.1-4.2,4.6v45.4c0,2.5,1.9,4.6,4.2,4.6h23.1c4.8,3.7,10.8,5.9,17.4,5.9c6.5,0,12.5-2.2,17.4-5.9h23.1
			c2.3,0,4.2-2.1,4.2-4.6V26.1C99.3,23.6,97.5,21.5,95.1,21.5z M95.2,71.5c0,0.2-0.1,0.4-0.1,0.4H76.4c4.3-5.1,6.9-11.6,6.9-18.8
			c0-12.8-8.3-23.6-19.8-27.4H95c0,0.1,0.1,0.2,0.1,0.4V71.5z M14.2,71.9c0-0.1-0.1-0.2-0.1-0.4V26.1c0-0.2,0.1-0.4,0.1-0.4h31.5
			c-11.5,3.8-19.8,14.6-19.8,27.4c0,7.2,2.6,13.7,6.9,18.8H14.2z M67.5,15.3l6.2,6.2H36.8l6.2-6.2H67.5z M30.1,53.1
			c0-13.6,11-24.7,24.5-24.7s24.5,11.1,24.5,24.7c0,13.6-11,24.7-24.5,24.7S30.1,66.7,30.1,53.1z"/>
		<path class="st2" d="M54.6,77.8c13.5,0,24.5-11.1,24.5-24.7c0-13.6-11-24.7-24.5-24.7S30.1,39.5,30.1,53.1
			C30.1,66.7,41.1,77.8,54.6,77.8z M54.6,36.6c9.1,0,16.5,7.4,16.5,16.6c0,9.1-7.4,16.6-16.5,16.6c-9.1,0-16.5-7.4-16.5-16.6
			C38.1,44,45.5,36.6,54.6,36.6z"/>
		<ellipse class="st2" cx="54.6" cy="53.1" rx="12.3" ry="12.4"/>
		<path class="st1" d="M54.6,69.7c9.1,0,16.5-7.4,16.5-16.6c0-9.1-7.4-16.6-16.5-16.6c-9.1,0-16.5,7.4-16.5,16.6
			C38.1,62.3,45.5,69.7,54.6,69.7z M54.6,40.8c6.8,0,12.3,5.6,12.3,12.4s-5.5,12.4-12.3,12.4c-6.8,0-12.3-5.6-12.3-12.4
			S47.8,40.8,54.6,40.8z"/>
	</g>
</g>
</svg>
