<?xml version="1.0" encoding="utf-8"?>
<!-- Generator: Adobe Illustrator 26.5.1, SVG Export Plug-In . SVG Version: 6.00 Build 0)  -->
<svg version="1.1" id="Capa_1" xmlns="http://www.w3.org/2000/svg" xmlns:xlink="http://www.w3.org/1999/xlink" x="0px" y="0px"
	 viewBox="0 0 100 100" style="enable-background:new 0 0 100 100;" xml:space="preserve">
<style type="text/css">
	.st0{opacity:0.2;fill:#272425;}
	.st1{fill:#B04C57;}
	.st2{fill:#FFFFFF;}
</style>
<g>
	<path class="st0" d="M75.6,10.6c0-0.1,0-0.1,0-0.2c0,0,0-0.1,0-0.1c0-0.1,0-0.1,0-0.2c0,0,0-0.1,0-0.1c0,0,0-0.1,0-0.1
		c0-0.1,0-0.1,0-0.1c0,0,0-0.1,0-0.1c0-0.1,0-0.1-0.1-0.2c0,0,0,0,0-0.1c0,0,0,0,0,0c0-0.1-0.1-0.1-0.1-0.1c0,0,0-0.1-0.1-0.1
		c0,0-0.1-0.1-0.1-0.1C75,9,75,9,75,9c0,0,0-0.1-0.1-0.1c0,0-0.1-0.1-0.1-0.1c0,0,0,0-0.1-0.1c0,0-0.1-0.1-0.1-0.1
		c0,0-0.1,0-0.1-0.1c0,0-0.1-0.1-0.1-0.1c0,0-0.1-0.1-0.1-0.1c0,0-0.1,0-0.1-0.1c-0.1,0-0.1-0.1-0.2-0.1c0,0,0,0-0.1,0
		c-0.1,0-0.1-0.1-0.2-0.1c0,0,0,0-0.1,0c-0.1,0-0.1,0-0.2,0c0,0-0.1,0-0.1,0c0,0-0.1,0-0.2,0c0,0-0.1,0-0.1,0c0,0-0.1,0-0.1,0
		c-0.1,0-0.1,0-0.2,0c0,0,0,0,0,0c0,0-0.1,0-0.1,0c-0.1,0-0.1,0-0.2,0c0,0-0.1,0-0.1,0c0,0-0.1,0-0.1,0c0,0-0.1,0-0.1,0
		c0,0-0.1,0-0.1,0c-0.1,0-0.1,0-0.2,0.1c0,0-0.1,0-0.1,0c-0.1,0-0.1,0-0.2,0.1c0,0,0,0-0.1,0L32.3,28.2c0,0,0,0,0,0
		c-0.1,0-0.1,0.1-0.1,0.1c0,0-0.1,0-0.1,0.1c0,0-0.1,0.1-0.1,0.1c0,0-0.1,0.1-0.1,0.1c0,0-0.1,0-0.1,0.1c0,0-0.1,0.1-0.1,0.1
		c0,0,0,0-0.1,0.1c0,0-0.1,0.1-0.1,0.1c0,0,0,0-0.1,0.1c0,0-0.1,0.1-0.1,0.1c0,0,0,0.1-0.1,0.1c0,0,0,0.1-0.1,0.1
		c0,0.1-0.1,0.1-0.1,0.2c0,0,0,0.1,0,0.1c0,0.1,0,0.1-0.1,0.2c0,0,0,0,0,0.1c0,0.1,0,0.1,0,0.2c0,0,0,0.1,0,0.1c0,0,0,0.1,0,0.1
		c0,0,0,0.1,0,0.1c0,0,0,0.1,0,0.1c0,0.1,0,0.1,0,0.2c0,0,0,0,0,0V78c-1.7-1-3.7-1.6-5.8-1.6c-6.2,0-11.3,5.1-11.3,11.3
		c0,6.2,5.1,11.3,11.3,11.3s11.3-5.1,11.3-11.3V32.3l33.9-17.2V58c-1.7-1-3.7-1.6-5.8-1.6c-6.2,0-11.3,5.1-11.3,11.3
		S58,79.1,64.3,79.1c6.2,0,11.3-5.1,11.3-11.3L75.6,10.6C75.6,10.7,75.6,10.6,75.6,10.6z"/>
	<g>
		<g>
			<circle class="st1" cx="31.2" cy="82.7" r="8.6"/>
			<path class="st1" d="M31.2,94C25,94,19.9,89,19.9,82.7c0-6.2,5.1-11.3,11.3-11.3c6.2,0,11.3,5.1,11.3,11.3
				C42.5,89,37.5,94,31.2,94z M31.2,76.9c-3.2,0-5.8,2.6-5.8,5.8c0,3.2,2.6,5.8,5.8,5.8c3.2,0,5.8-2.6,5.8-5.8
				C37.1,79.5,34.4,76.9,31.2,76.9z"/>
		</g>
		<g>
			<path class="st1" d="M39.8,85.5c-1.5,0-2.7-1.2-2.7-2.7v-57c0-1.5,1.2-2.7,2.7-2.7c1.5,0,2.7,1.2,2.7,2.7v57
				C42.5,84.2,41.3,85.5,39.8,85.5z"/>
		</g>
		<g>
			<path class="st1" d="M79.1,62.8c0,4.7-3.8,8.6-8.6,8.6c-4.7,0-8.6-3.8-8.6-8.6c0-4.7,3.8-8.6,8.6-8.6
				C75.3,54.2,79.1,58,79.1,62.8z"/>
			<path class="st1" d="M70.6,74.1c-6.2,0-11.3-5.1-11.3-11.3s5.1-11.3,11.3-11.3c6.2,0,11.3,5.1,11.3,11.3S76.8,74.1,70.6,74.1z
				 M70.6,56.9c-3.2,0-5.8,2.6-5.8,5.8c0,3.2,2.6,5.8,5.8,5.8s5.8-2.6,5.8-5.8C76.4,59.6,73.8,56.9,70.6,56.9z"/>
		</g>
		<g>
			<path class="st1" d="M79.1,65.5c-1.5,0-2.7-1.2-2.7-2.7v-57c0-1.5,1.2-2.7,2.7-2.7c1.5,0,2.7,1.2,2.7,2.7v57
				C81.9,64.3,80.7,65.5,79.1,65.5z"/>
		</g>
		<g>
			<path class="st1" d="M39.8,28.4c-1,0-2-0.5-2.4-1.5c-0.7-1.4-0.1-3,1.2-3.7L77.9,3.3c1.4-0.7,3-0.1,3.7,1.2
				c0.7,1.4,0.1,3-1.2,3.7L41,28.1C40.6,28.3,40.2,28.4,39.8,28.4z"/>
		</g>
	</g>
</g>
<g>
	<path class="st0" d="M202.2,28.5h-15.5l-9.7-9.8c-0.4-0.4-0.9-0.6-1.5-0.6h-26.3c-0.6,0-1.1,0.2-1.5,0.6l-9.7,9.8h-16.8
		c-2.3,0-4.2,2.1-4.2,4.6v45.4c0,2.5,1.9,4.6,4.2,4.6h23.1c4.8,3.7,10.8,5.9,17.4,5.9c6.5,0,12.5-2.2,17.4-5.9h23.1
		c2.3,0,4.2-2.1,4.2-4.6V33.1C206.4,30.6,204.5,28.5,202.2,28.5z"/>
	<g>
		<polygon class="st2" points="189.7,21.5 183.5,15.3 159,15.3 152.8,21.5 		"/>
		<path class="st2" d="M179.5,25.7c11.5,3.8,19.8,14.6,19.8,27.4c0,7.2-2.6,13.7-6.9,18.8H211c0-0.1,0.1-0.2,0.1-0.4V26.1
			c0-0.2-0.1-0.4-0.1-0.4H179.5z"/>
		<path class="st2" d="M161.7,25.7h-31.5c0,0.1-0.1,0.2-0.1,0.4v45.4c0,0.2,0.1,0.4,0.1,0.4h18.6c-4.3-5.1-6.9-11.6-6.9-18.8
			C141.9,40.4,150.2,29.5,161.7,25.7z"/>
		<path class="st1" d="M211.1,21.5h-15.5l-9.7-9.8c-0.4-0.4-0.9-0.6-1.5-0.6h-26.3c-0.6,0-1.1,0.2-1.5,0.6l-9.7,9.8h-16.8
			c-2.3,0-4.2,2.1-4.2,4.6v45.4c0,2.5,1.9,4.6,4.2,4.6h23.1c4.8,3.7,10.8,5.9,17.4,5.9c6.5,0,12.5-2.2,17.4-5.9h23.1
			c2.3,0,4.2-2.1,4.2-4.6V26.1C215.3,23.6,213.5,21.5,211.1,21.5z M211.2,71.5c0,0.2-0.1,0.4-0.1,0.4h-18.6
			c4.3-5.1,6.9-11.6,6.9-18.8c0-12.8-8.3-23.6-19.8-27.4H211c0,0.1,0.1,0.2,0.1,0.4V71.5z M130.2,71.9c0-0.1-0.1-0.2-0.1-0.4V26.1
			c0-0.2,0.1-0.4,0.1-0.4h31.5c-11.5,3.8-19.8,14.6-19.8,27.4c0,7.2,2.6,13.7,6.9,18.8H130.2z M183.5,15.3l6.2,6.2h-36.9l6.2-6.2
			H183.5z M146.1,53.1c0-13.6,11-24.7,24.5-24.7c13.5,0,24.5,11.1,24.5,24.7c0,13.6-11,24.7-24.5,24.7
			C157.1,77.8,146.1,66.7,146.1,53.1z"/>
		<path class="st2" d="M170.6,77.8c13.5,0,24.5-11.1,24.5-24.7c0-13.6-11-24.7-24.5-24.7c-13.5,0-24.5,11.1-24.5,24.7
			C146.1,66.7,157.1,77.8,170.6,77.8z M170.6,36.6c9.1,0,16.5,7.4,16.5,16.6c0,9.1-7.4,16.6-16.5,16.6c-9.1,0-16.5-7.4-16.5-16.6
			C154.1,44,161.5,36.6,170.6,36.6z"/>
		<ellipse class="st2" cx="170.6" cy="53.1" rx="12.3" ry="12.4"/>
		<path class="st1" d="M170.6,69.7c9.1,0,16.5-7.4,16.5-16.6c0-9.1-7.4-16.6-16.5-16.6c-9.1,0-16.5,7.4-16.5,16.6
			C154.1,62.3,161.5,69.7,170.6,69.7z M170.6,40.8c6.8,0,12.3,5.6,12.3,12.4s-5.5,12.4-12.3,12.4c-6.8,0-12.3-5.6-12.3-12.4
			S163.8,40.8,170.6,40.8z"/>
	</g>
</g>
</svg>
