<?xml version="1.0" encoding="utf-8"?>
<!-- Generator: Adobe Illustrator 26.5.1, SVG Export Plug-In . SVG Version: 6.00 Build 0)  -->
<svg version="1.1" id="Capa_1" xmlns="http://www.w3.org/2000/svg" xmlns:xlink="http://www.w3.org/1999/xlink" x="0px" y="0px"
	 viewBox="0 0 100 100" style="enable-background:new 0 0 100 100;" xml:space="preserve">
<style type="text/css">
	.st0{opacity:0.2;fill:#272425;}
	.st1{fill:#B04C57;}
	.st2{fill:#FFFFFF;}
	.st3{opacity:0.2;}
	.st4{fill:#272425;}
</style>
<g>
	<path class="st0" d="M273.6,10.6c0-0.1,0-0.1,0-0.2c0,0,0-0.1,0-0.1c0-0.1,0-0.1,0-0.2c0,0,0-0.1,0-0.1c0,0,0-0.1,0-0.1
		c0-0.1,0-0.1,0-0.1c0,0,0-0.1,0-0.1c0-0.1,0-0.1-0.1-0.2c0,0,0,0,0-0.1c0,0,0,0,0,0c0-0.1-0.1-0.1-0.1-0.1c0,0,0-0.1-0.1-0.1
		c0,0-0.1-0.1-0.1-0.1C273,9,273,9,273,9c0,0,0-0.1-0.1-0.1c0,0-0.1-0.1-0.1-0.1c0,0,0,0-0.1-0.1c0,0-0.1-0.1-0.1-0.1
		c0,0-0.1,0-0.1-0.1c0,0-0.1-0.1-0.1-0.1c0,0-0.1-0.1-0.1-0.1c0,0-0.1,0-0.1-0.1c-0.1,0-0.1-0.1-0.2-0.1c0,0,0,0-0.1,0
		c-0.1,0-0.1-0.1-0.2-0.1c0,0,0,0-0.1,0c-0.1,0-0.1,0-0.2,0c0,0-0.1,0-0.1,0c0,0-0.1,0-0.2,0c0,0-0.1,0-0.1,0c0,0-0.1,0-0.1,0
		c-0.1,0-0.1,0-0.2,0c0,0,0,0,0,0c0,0-0.1,0-0.1,0c-0.1,0-0.1,0-0.2,0c0,0-0.1,0-0.1,0c0,0-0.1,0-0.1,0c0,0-0.1,0-0.1,0
		c0,0-0.1,0-0.1,0c-0.1,0-0.1,0-0.2,0.1c0,0-0.1,0-0.1,0c-0.1,0-0.1,0-0.2,0.1c0,0,0,0-0.1,0l-39.3,19.9c0,0,0,0,0,0
		c-0.1,0-0.1,0.1-0.1,0.1c0,0-0.1,0-0.1,0.1c0,0-0.1,0.1-0.1,0.1c0,0-0.1,0.1-0.1,0.1c0,0-0.1,0-0.1,0.1c0,0-0.1,0.1-0.1,0.1
		c0,0,0,0-0.1,0.1c0,0-0.1,0.1-0.1,0.1c0,0,0,0-0.1,0.1c0,0-0.1,0.1-0.1,0.1c0,0,0,0.1-0.1,0.1c0,0,0,0.1-0.1,0.1
		c0,0.1-0.1,0.1-0.1,0.2c0,0,0,0.1,0,0.1c0,0.1,0,0.1-0.1,0.2c0,0,0,0,0,0.1c0,0.1,0,0.1,0,0.2c0,0,0,0.1,0,0.1c0,0,0,0.1,0,0.1
		c0,0,0,0.1,0,0.1c0,0,0,0.1,0,0.1c0,0.1,0,0.1,0,0.2c0,0,0,0,0,0V78c-1.7-1-3.7-1.6-5.8-1.6c-6.2,0-11.3,5.1-11.3,11.3
		c0,6.2,5.1,11.3,11.3,11.3s11.3-5.1,11.3-11.3V32.3l33.9-17.2V58c-1.7-1-3.7-1.6-5.8-1.6c-6.2,0-11.3,5.1-11.3,11.3
		s5.1,11.3,11.3,11.3s11.3-5.1,11.3-11.3L273.6,10.6C273.6,10.7,273.6,10.6,273.6,10.6z"/>
	<g>
		<g>
			<circle class="st1" cx="229.2" cy="82.7" r="8.6"/>
			<path class="st1" d="M229.2,94c-6.2,0-11.3-5.1-11.3-11.3c0-6.2,5.1-11.3,11.3-11.3c6.2,0,11.3,5.1,11.3,11.3
				C240.5,89,235.5,94,229.2,94z M229.2,76.9c-3.2,0-5.8,2.6-5.8,5.8c0,3.2,2.6,5.8,5.8,5.8c3.2,0,5.8-2.6,5.8-5.8
				C235.1,79.5,232.4,76.9,229.2,76.9z"/>
		</g>
		<g>
			<path class="st1" d="M237.8,85.5c-1.5,0-2.7-1.2-2.7-2.7v-57c0-1.5,1.2-2.7,2.7-2.7c1.5,0,2.7,1.2,2.7,2.7v57
				C240.5,84.2,239.3,85.5,237.8,85.5z"/>
		</g>
		<g>
			<path class="st1" d="M277.1,62.8c0,4.7-3.8,8.6-8.6,8.6c-4.7,0-8.6-3.8-8.6-8.6c0-4.7,3.8-8.6,8.6-8.6
				C273.3,54.2,277.1,58,277.1,62.8z"/>
			<path class="st1" d="M268.6,74.1c-6.2,0-11.3-5.1-11.3-11.3s5.1-11.3,11.3-11.3c6.2,0,11.3,5.1,11.3,11.3S274.8,74.1,268.6,74.1z
				 M268.6,56.9c-3.2,0-5.8,2.6-5.8,5.8c0,3.2,2.6,5.8,5.8,5.8c3.2,0,5.8-2.6,5.8-5.8C274.4,59.6,271.8,56.9,268.6,56.9z"/>
		</g>
		<g>
			<path class="st1" d="M277.1,65.5c-1.5,0-2.7-1.2-2.7-2.7v-57c0-1.5,1.2-2.7,2.7-2.7c1.5,0,2.7,1.2,2.7,2.7v57
				C279.9,64.3,278.7,65.5,277.1,65.5z"/>
		</g>
		<g>
			<path class="st1" d="M237.8,28.4c-1,0-2-0.5-2.4-1.5c-0.7-1.4-0.1-3,1.2-3.7l39.3-19.9c1.4-0.7,3-0.1,3.7,1.2
				c0.7,1.4,0.1,3-1.2,3.7L239,28.1C238.6,28.3,238.2,28.4,237.8,28.4z"/>
		</g>
	</g>
</g>
<g>
	<path class="st0" d="M202.2,28.5h-15.5l-9.7-9.8c-0.4-0.4-0.9-0.6-1.5-0.6h-26.3c-0.6,0-1.1,0.2-1.5,0.6l-9.7,9.8h-16.8
		c-2.3,0-4.2,2.1-4.2,4.6v45.4c0,2.5,1.9,4.6,4.2,4.6h23.1c4.8,3.7,10.8,5.9,17.4,5.9c6.5,0,12.5-2.2,17.4-5.9h23.1
		c2.3,0,4.2-2.1,4.2-4.6V33.1C206.4,30.6,204.5,28.5,202.2,28.5z"/>
	<g>
		<polygon class="st2" points="189.7,21.5 183.5,15.3 159,15.3 152.8,21.5 		"/>
		<path class="st2" d="M179.5,25.7c11.5,3.8,19.8,14.6,19.8,27.4c0,7.2-2.6,13.7-6.9,18.8H211c0-0.1,0.1-0.2,0.1-0.4V26.1
			c0-0.2-0.1-0.4-0.1-0.4H179.5z"/>
		<path class="st2" d="M161.7,25.7h-31.5c0,0.1-0.1,0.2-0.1,0.4v45.4c0,0.2,0.1,0.4,0.1,0.4h18.6c-4.3-5.1-6.9-11.6-6.9-18.8
			C141.9,40.4,150.2,29.5,161.7,25.7z"/>
		<path class="st1" d="M211.1,21.5h-15.5l-9.7-9.8c-0.4-0.4-0.9-0.6-1.5-0.6h-26.3c-0.6,0-1.1,0.2-1.5,0.6l-9.7,9.8h-16.8
			c-2.3,0-4.2,2.1-4.2,4.6v45.4c0,2.5,1.9,4.6,4.2,4.6h23.1c4.8,3.7,10.8,5.9,17.4,5.9c6.5,0,12.5-2.2,17.4-5.9h23.1
			c2.3,0,4.2-2.1,4.2-4.6V26.1C215.3,23.6,213.5,21.5,211.1,21.5z M211.2,71.5c0,0.2-0.1,0.4-0.1,0.4h-18.6
			c4.3-5.1,6.9-11.6,6.9-18.8c0-12.8-8.3-23.6-19.8-27.4H211c0,0.1,0.1,0.2,0.1,0.4V71.5z M130.2,71.9c0-0.1-0.1-0.2-0.1-0.4V26.1
			c0-0.2,0.1-0.4,0.1-0.4h31.5c-11.5,3.8-19.8,14.6-19.8,27.4c0,7.2,2.6,13.7,6.9,18.8H130.2z M183.5,15.3l6.2,6.2h-36.9l6.2-6.2
			H183.5z M146.1,53.1c0-13.6,11-24.7,24.5-24.7c13.5,0,24.5,11.1,24.5,24.7c0,13.6-11,24.7-24.5,24.7
			C157.1,77.8,146.1,66.7,146.1,53.1z"/>
		<path class="st2" d="M170.6,77.8c13.5,0,24.5-11.1,24.5-24.7c0-13.6-11-24.7-24.5-24.7c-13.5,0-24.5,11.1-24.5,24.7
			C146.1,66.7,157.1,77.8,170.6,77.8z M170.6,36.6c9.1,0,16.5,7.4,16.5,16.6c0,9.1-7.4,16.6-16.5,16.6c-9.1,0-16.5-7.4-16.5-16.6
			C154.1,44,161.5,36.6,170.6,36.6z"/>
		<ellipse class="st2" cx="170.6" cy="53.1" rx="12.3" ry="12.4"/>
		<path class="st1" d="M170.6,69.7c9.1,0,16.5-7.4,16.5-16.6c0-9.1-7.4-16.6-16.5-16.6c-9.1,0-16.5,7.4-16.5,16.6
			C154.1,62.3,161.5,69.7,170.6,69.7z M170.6,40.8c6.8,0,12.3,5.6,12.3,12.4s-5.5,12.4-12.3,12.4c-6.8,0-12.3-5.6-12.3-12.4
			S163.8,40.8,170.6,40.8z"/>
	</g>
</g>
<g>
	<g class="st3">
		<g>
			<polygon class="st4" points="68.6,64.3 68.6,55.2 13.6,55.2 13.6,94.3 68.6,94.3 68.6,85.2 86.7,95.7 86.7,74.7 86.7,53.8 			"/>
			<path class="st4" d="M86.7,98.3c-0.4,0-0.9-0.1-1.3-0.3l-14.2-8.2v4.6c0,1.4-1.2,2.6-2.6,2.6h-55c-1.4,0-2.6-1.2-2.6-2.6V55.2
				c0-1.4,1.2-2.6,2.6-2.6h55c1.4,0,2.6,1.2,2.6,2.6v4.6l14.2-8.2c0.8-0.5,1.8-0.5,2.6,0c0.8,0.5,1.3,1.3,1.3,2.3v41.9
				c0,0.9-0.5,1.8-1.3,2.3C87.6,98.1,87.2,98.3,86.7,98.3z M16.2,91.7H66v-6.5c0-0.9,0.5-1.8,1.3-2.3c0.8-0.5,1.8-0.5,2.6,0
				l14.2,8.2V58.3l-14.2,8.2c-0.8,0.5-1.8,0.5-2.6,0C66.5,66,66,65.2,66,64.3v-6.5H16.2V91.7z"/>
		</g>
		<g>
			<path class="st4" d="M42.2,26.6c0,9.8-8,17.8-17.8,17.8c-9.8,0-17.8-8-17.8-17.8c0-9.8,8-17.8,17.8-17.8
				C34.2,8.8,42.2,16.8,42.2,26.6z"/>
			<path class="st4" d="M24.4,47C13.2,47,4,37.9,4,26.6S13.2,6.2,24.4,6.2c11.3,0,20.4,9.2,20.4,20.4S35.7,47,24.4,47z M24.4,11.4
				c-8.4,0-15.2,6.8-15.2,15.2c0,8.4,6.8,15.2,15.2,15.2c8.4,0,15.2-6.8,15.2-15.2C39.6,18.2,32.8,11.4,24.4,11.4z"/>
		</g>
		<g>
			<path class="st4" d="M77.1,31.6c0,7.1-5.8,12.9-12.9,12.9c-7.1,0-12.9-5.8-12.9-12.9c0-7.1,5.8-12.9,12.9-12.9
				C71.3,18.7,77.1,24.4,77.1,31.6z"/>
			<path class="st4" d="M64.2,47c-8.5,0-15.5-6.9-15.5-15.5c0-8.5,6.9-15.5,15.5-15.5S79.7,23,79.7,31.6C79.7,40.1,72.7,47,64.2,47z
				 M64.2,21.3c-5.7,0-10.3,4.6-10.3,10.3c0,5.7,4.6,10.3,10.3,10.3c5.7,0,10.3-4.6,10.3-10.3C74.5,25.9,69.9,21.3,64.2,21.3z"/>
		</g>
	</g>
	<g>
		<g>
			<polygon class="st2" points="74.3,59.8 74.3,50.7 19.3,50.7 19.3,89.8 74.3,89.8 74.3,80.7 92.4,91.2 92.4,70.3 92.4,49.3 			"/>
			<path class="st1" d="M92.4,93.8c-0.4,0-0.9-0.1-1.3-0.3l-14.2-8.2v4.6c0,1.4-1.2,2.6-2.6,2.6h-55c-1.4,0-2.6-1.2-2.6-2.6V50.7
				c0-1.4,1.2-2.6,2.6-2.6h55c1.4,0,2.6,1.2,2.6,2.6v4.6l14.2-8.2c0.8-0.5,1.8-0.5,2.6,0c0.8,0.5,1.3,1.3,1.3,2.3v41.9
				c0,0.9-0.5,1.8-1.3,2.3C93.3,93.7,92.8,93.8,92.4,93.8z M21.9,87.2h49.8v-6.5c0-0.9,0.5-1.8,1.3-2.3c0.8-0.5,1.8-0.5,2.6,0
				l14.2,8.2V53.8L75.6,62c-0.8,0.5-1.8,0.5-2.6,0c-0.8-0.5-1.3-1.3-1.3-2.3v-6.5H21.9V87.2z"/>
		</g>
		<g>
			
				<ellipse transform="matrix(0.2669 -0.9637 0.9637 0.2669 0.6833 45.2247)" class="st2" cx="30.1" cy="22.2" rx="17.8" ry="17.8"/>
			<path class="st1" d="M30.1,42.6c-11.3,0-20.4-9.2-20.4-20.4c0-11.3,9.2-20.4,20.4-20.4s20.4,9.2,20.4,20.4
				C50.5,33.4,41.3,42.6,30.1,42.6z M30.1,7c-8.4,0-15.2,6.8-15.2,15.2c0,8.4,6.8,15.2,15.2,15.2s15.2-6.8,15.2-15.2
				C45.3,13.8,38.5,7,30.1,7z"/>
		</g>
		<g>
			<path class="st2" d="M82.8,27.1C82.8,34.2,77,40,69.9,40C62.8,40,57,34.2,57,27.1c0-7.1,5.8-12.9,12.9-12.9
				C77,14.2,82.8,20,82.8,27.1z"/>
			<path class="st1" d="M69.9,42.6c-8.5,0-15.5-6.9-15.5-15.5c0-8.5,6.9-15.5,15.5-15.5s15.5,6.9,15.5,15.5
				C85.4,35.6,78.4,42.6,69.9,42.6z M69.9,16.8c-5.7,0-10.3,4.6-10.3,10.3c0,5.7,4.6,10.3,10.3,10.3c5.7,0,10.3-4.6,10.3-10.3
				C80.2,21.4,75.5,16.8,69.9,16.8z"/>
		</g>
	</g>
</g>
</svg>
