<?xml version="1.0" encoding="UTF-8"?>
<!DOCTYPE svg PUBLIC "-//W3C//DTD SVG 1.1//EN" "http://www.w3.org/Graphics/SVG/1.1/DTD/svg11.dtd">
<!-- Creator: CorelDRAW -->
<svg xmlns="http://www.w3.org/2000/svg" xml:space="preserve" width="2.66666in" height="2.66666in" version="1.1" style="shape-rendering:geometricPrecision; text-rendering:geometricPrecision; image-rendering:optimizeQuality; fill-rule:evenodd; clip-rule:evenodd"
viewBox="0 0 2667 2667"
 xmlns:xlink="http://www.w3.org/1999/xlink">
 <defs>
  <style type="text/css">
   <![CDATA[
    .fil1 {fill:white}
    .fil0 {fill:url(#id0)}
   ]]>
  </style>
  <linearGradient id="id0" gradientUnits="userSpaceOnUse" x1="1333.33" y1="0" x2="1333.33" y2="2666.66">
   <stop offset="0" style="stop-opacity:1; stop-color:#6666CC"/>
   <stop offset="0.509804" style="stop-opacity:1; stop-color:fuchsia"/>
   <stop offset="1" style="stop-opacity:1; stop-color:#FF6600"/>
  </linearGradient>
 </defs>
 <circle class="fil0" cx="1333" cy="1333" r="1333"/>
 <g id="Layer_x0020_1">
  <metadata id="CorelCorpID_0Corel-Layer"/>
  <path class="fil1" d="M871 1492c-19,0 -35,-16 -35,-34l0 -201c2,-27 31,-39 53,-27l161 94c26,15 25,55 1,69l-162 94c-6,3 -12,5 -18,5zm455 677l-1 -1 -737 -276c-35,-13 -108,-41 -108,-114l0 -1162c0,-66 60,-140 124,-114l729 288 729 -288c65,-26 125,48 125,114l0 1162c0,73 -73,101 -108,114l-738 276 -15 1zm-748 -1627c-25,0 -52,39 -52,74l0 1162c0,30 22,50 78,71l707 265 0 -1283 -724 -287c-3,-1 -6,-2 -9,-2zm778 1572l707 -265c56,-21 78,-41 78,-71l0 -1162c0,-37 -32,-83 -62,-72l-197 79 0 473c0,20 -25,31 -39,17l-96 -93 -92 92c-15,15 -39,5 -39,-16l0 -368 -260 103 0 1283zm391 -1149c6,0 12,2 16,6l73 71 0 -401 -175 69 0 331 70 -70c5,-4 10,-6 16,-6zm288 324l-538 0c-30,0 -30,-46 0,-46l538 0c30,0 30,46 0,46zm0 170l-538 0c-30,0 -30,-46 0,-46l538 0c30,0 30,46 0,46zm0 170l-538 0c-30,0 -30,-46 0,-46l538 0c30,0 30,46 0,46zm0 170l-538 0c-30,0 -30,-46 0,-46l538 0c30,0 30,46 0,46zm-853 -872l-515 0c-30,0 -30,-45 0,-45l515 0c30,0 30,45 0,45zm0 858l-515 0c-30,0 -30,-45 0,-45l515 0c30,0 30,45 0,45zm-264 -183c-134,0 -244,-109 -244,-243 0,-135 110,-244 244,-244 134,0 244,109 244,244 0,134 -110,243 -244,243zm0 -441c-109,0 -198,88 -198,198 0,109 89,198 198,198 109,0 198,-89 198,-198 0,-110 -89,-198 -198,-198zm-36 118l0 159 138 -79 -138 -80z"/>
 </g>
</svg>
